<svg width="139" height="45" viewBox="0 0 139 45" fill="none" xmlns="http://www.w3.org/2000/svg">
<circle cx="22.5" cy="22.5" r="22.5" fill="#FFAF00"/>
<path d="M10.754 9.894H19.424C21.7133 9.894 23.504 10.4947 24.796 11.696C26.1107 12.8973 26.768 14.4613 26.768 16.388C26.768 17.612 26.4393 18.7 25.782 19.652C25.1247 20.5813 24.286 21.216 23.266 21.556C24.49 21.8507 25.4987 22.5193 26.292 23.562C27.108 24.582 27.516 25.8173 27.516 27.268C27.516 29.24 26.836 30.8607 25.476 32.13C24.116 33.3767 22.314 34 20.07 34H10.754V9.894ZM15.378 19.856H18.71C19.7753 19.856 20.614 19.584 21.226 19.04C21.838 18.496 22.144 17.7593 22.144 16.83C22.144 15.9007 21.838 15.1753 21.226 14.654C20.6367 14.11 19.7867 13.838 18.676 13.838H15.378V19.856ZM15.378 30.09H19.186C20.3193 30.09 21.2033 29.818 21.838 29.274C22.4953 28.7073 22.824 27.9367 22.824 26.962C22.824 25.9873 22.5067 25.2053 21.872 24.616C21.26 24.0267 20.3873 23.732 19.254 23.732H15.378V30.09ZM35.688 34H31.166V9.384H35.688V34ZM45.0172 29.138C45.8559 29.9767 46.8646 30.396 48.0432 30.396C49.2219 30.396 50.2192 29.9767 51.0352 29.138C51.8739 28.2993 52.2932 27.132 52.2932 25.636C52.2932 24.14 51.8739 22.9727 51.0352 22.134C50.2192 21.2953 49.2219 20.876 48.0432 20.876C46.8646 20.876 45.8559 21.2953 45.0172 22.134C44.2012 22.9727 43.7932 24.14 43.7932 25.636C43.7932 27.132 44.2012 28.2993 45.0172 29.138ZM41.7532 19.278C43.4306 17.6007 45.5272 16.762 48.0432 16.762C50.5592 16.762 52.6446 17.6007 54.2992 19.278C55.9766 20.9553 56.8152 23.0747 56.8152 25.636C56.8152 28.1973 55.9766 30.3167 54.2992 31.994C52.6446 33.6713 50.5592 34.51 48.0432 34.51C45.5272 34.51 43.4306 33.6713 41.7532 31.994C40.0986 30.3167 39.2712 28.1973 39.2712 25.636C39.2712 23.0747 40.0986 20.9553 41.7532 19.278ZM59.1947 34.918L63.2747 33.83C63.4334 34.7593 63.864 35.5187 64.5667 36.108C65.2694 36.6973 66.142 36.992 67.1847 36.992C70.154 36.992 71.6387 35.4393 71.6387 32.334V31.11C71.2534 31.722 70.664 32.232 69.8707 32.64C69.0774 33.048 68.114 33.252 66.9807 33.252C64.7594 33.252 62.9007 32.4813 61.4047 30.94C59.9314 29.3987 59.1947 27.4607 59.1947 25.126C59.1947 22.8593 59.9314 20.9327 61.4047 19.346C62.878 17.7593 64.7367 16.966 66.9807 16.966C68.2047 16.966 69.2247 17.1927 70.0407 17.646C70.8567 18.0767 71.4234 18.6093 71.7407 19.244V17.272H76.0927V32.198C76.0927 34.714 75.3674 36.7993 73.9167 38.454C72.466 40.1313 70.2674 40.97 67.3207 40.97C65.122 40.97 63.2747 40.3807 61.7787 39.202C60.3054 38.0233 59.444 36.5953 59.1947 34.918ZM67.7627 29.376C68.9187 29.376 69.8594 28.9907 70.5847 28.22C71.3327 27.4493 71.7067 26.418 71.7067 25.126C71.7067 23.8567 71.3214 22.8367 70.5507 22.066C69.8027 21.2953 68.8734 20.91 67.7627 20.91C66.6067 20.91 65.6434 21.2953 64.8727 22.066C64.1247 22.8367 63.7507 23.8567 63.7507 25.126C63.7507 26.418 64.1247 27.4493 64.8727 28.22C65.6207 28.9907 66.584 29.376 67.7627 29.376ZM83.9698 23.732H91.4498C91.4045 22.8027 91.0645 22.0207 90.4298 21.386C89.8178 20.7513 88.9111 20.434 87.7098 20.434C86.6218 20.434 85.7378 20.774 85.0578 21.454C84.3778 22.134 84.0151 22.8933 83.9698 23.732ZM91.8918 28.084L95.6658 29.206C95.2125 30.7473 94.3171 32.0167 92.9798 33.014C91.6651 34.0113 90.0218 34.51 88.0498 34.51C85.6471 34.51 83.6071 33.7053 81.9298 32.096C80.2525 30.464 79.4138 28.288 79.4138 25.568C79.4138 22.984 80.2298 20.876 81.8618 19.244C83.4938 17.5893 85.4205 16.762 87.6418 16.762C90.2258 16.762 92.2431 17.5327 93.6938 19.074C95.1671 20.6153 95.9038 22.7347 95.9038 25.432C95.9038 25.6133 95.8925 25.8173 95.8698 26.044C95.8698 26.2707 95.8698 26.452 95.8698 26.588L95.8358 26.826H83.8678C83.9131 27.914 84.3438 28.8207 85.1598 29.546C85.9758 30.2713 86.9505 30.634 88.0838 30.634C90.0105 30.634 91.2798 29.784 91.8918 28.084ZM109.665 17.204V21.76C109.211 21.6693 108.758 21.624 108.305 21.624C107.013 21.624 105.97 21.998 105.177 22.746C104.383 23.4713 103.987 24.6727 103.987 26.35V34H99.4648V17.272H103.851V19.754C104.667 18.0087 106.253 17.136 108.611 17.136C108.86 17.136 109.211 17.1587 109.665 17.204ZM117.368 34H112.846V17.272H117.368V34ZM112.302 11.798C112.302 11.0273 112.574 10.37 113.118 9.826C113.662 9.25933 114.319 8.976 115.09 8.976C115.86 8.976 116.518 9.248 117.062 9.792C117.606 10.336 117.878 11.0047 117.878 11.798C117.878 12.546 117.606 13.192 117.062 13.736C116.518 14.28 115.86 14.552 115.09 14.552C114.319 14.552 113.662 14.28 113.118 13.736C112.574 13.192 112.302 12.546 112.302 11.798ZM121.189 29.444C121.189 28.016 121.654 26.8713 122.583 26.01C123.512 25.1487 124.714 24.6047 126.187 24.378L130.301 23.766C131.14 23.6527 131.559 23.256 131.559 22.576C131.559 21.9413 131.31 21.42 130.811 21.012C130.335 20.604 129.644 20.4 128.737 20.4C127.785 20.4 127.026 20.6607 126.459 21.182C125.915 21.7033 125.609 22.3493 125.541 23.12L121.529 22.27C121.688 20.8193 122.402 19.5387 123.671 18.428C124.94 17.3173 126.618 16.762 128.703 16.762C131.196 16.762 133.032 17.3627 134.211 18.564C135.39 19.7427 135.979 21.2613 135.979 23.12V31.348C135.979 32.3453 136.047 33.2293 136.183 34H132.035C131.922 33.5013 131.865 32.8327 131.865 31.994C130.8 33.6487 129.156 34.476 126.935 34.476C125.212 34.476 123.818 33.9773 122.753 32.98C121.71 31.9827 121.189 30.804 121.189 29.444ZM127.887 31.11C128.952 31.11 129.825 30.8153 130.505 30.226C131.208 29.614 131.559 28.6167 131.559 27.234V26.486L127.785 27.064C126.402 27.268 125.711 27.9707 125.711 29.172C125.711 29.716 125.904 30.1807 126.289 30.566C126.674 30.9287 127.207 31.11 127.887 31.11Z" fill="white"/>
</svg>
