<svg width="163" height="42" viewBox="0 0 163 42" fill="none" xmlns="http://www.w3.org/2000/svg">
<circle cx="21" cy="21" r="21" fill="black"/>
<path d="M17.326 13.134C14.708 13.134 12.827 14.839 11.683 18.249C11.661 18.315 11.595 18.348 11.485 18.348C11.375 18.326 11.32 18.282 11.32 18.216C11.408 17.336 11.507 16.203 11.617 14.817C11.727 13.409 11.782 12.353 11.782 11.649C11.782 11.539 11.837 11.484 11.947 11.484C12.079 11.484 12.145 11.539 12.145 11.649C12.145 12.133 12.772 12.375 14.026 12.375C15.918 12.441 18.129 12.474 20.659 12.474C21.957 12.474 23.332 12.452 24.784 12.408L27.028 12.375C27.864 12.375 28.469 12.32 28.843 12.21C29.239 12.1 29.492 11.88 29.602 11.55C29.624 11.462 29.69 11.418 29.8 11.418C29.932 11.418 29.998 11.462 29.998 11.55C29.932 12.21 29.855 13.266 29.767 14.718C29.701 16.17 29.668 17.336 29.668 18.216C29.668 18.282 29.613 18.315 29.503 18.315C29.393 18.315 29.327 18.282 29.305 18.216C28.975 16.522 28.359 15.257 27.457 14.421C26.555 13.563 25.444 13.134 24.124 13.134C23.486 13.134 23.057 13.277 22.837 13.563C22.639 13.827 22.54 14.344 22.54 15.114V30.327C22.54 31.009 22.606 31.504 22.738 31.812C22.87 32.12 23.123 32.329 23.497 32.439C23.871 32.549 24.465 32.604 25.279 32.604C25.345 32.604 25.378 32.67 25.378 32.802C25.378 32.934 25.345 33 25.279 33C24.487 33 23.86 32.989 23.398 32.967L20.659 32.934L17.986 32.967C17.524 32.989 16.886 33 16.072 33C16.006 33 15.973 32.934 15.973 32.802C15.973 32.67 16.006 32.604 16.072 32.604C16.864 32.604 17.447 32.549 17.821 32.439C18.217 32.329 18.481 32.12 18.613 31.812C18.767 31.482 18.844 30.987 18.844 30.327V15.048C18.844 14.3 18.745 13.794 18.547 13.53C18.349 13.266 17.942 13.134 17.326 13.134Z" fill="white"/>
<path d="M44.248 31.9999C44.184 31.9999 44.152 31.9359 44.152 31.8079C44.152 31.6799 44.184 31.6159 44.248 31.6159C44.9093 31.6159 45.3573 31.4666 45.592 31.1679C45.8267 30.8479 45.944 30.2613 45.944 29.4079V23.6799C45.944 22.9546 45.8693 22.4319 45.72 22.1119C45.5707 21.7919 45.3253 21.6319 44.984 21.6319C44.7067 21.6319 44.312 21.7493 43.8 21.9839H43.768C43.6827 21.9839 43.6187 21.9306 43.576 21.8239C43.5333 21.6959 43.544 21.6213 43.608 21.5999L48.44 19.3599L48.536 19.3279C48.6427 19.3279 48.7493 19.3813 48.856 19.4879C48.9627 19.5946 49.016 19.6906 49.016 19.7759V20.4799C48.9733 21.3333 48.952 22.3786 48.952 23.6159V29.4079C48.952 30.2613 49.0693 30.8479 49.304 31.1679C49.56 31.4666 50.0187 31.6159 50.68 31.6159C50.744 31.6159 50.776 31.6799 50.776 31.8079C50.776 31.9359 50.744 31.9999 50.68 31.9999C50.1253 31.9999 49.688 31.9893 49.368 31.9679L47.448 31.9359L45.56 31.9679C45.24 31.9893 44.8027 31.9999 44.248 31.9999ZM47.32 16.1599C46.7013 16.1599 46.2213 15.9893 45.88 15.6479C45.5387 15.3066 45.368 14.8266 45.368 14.2079C45.368 13.6533 45.5387 13.2159 45.88 12.8959C46.2427 12.5546 46.7227 12.3839 47.32 12.3839C47.9173 12.3839 48.376 12.5439 48.696 12.8639C49.016 13.1839 49.176 13.6319 49.176 14.2079C49.176 14.8266 49.016 15.3066 48.696 15.6479C48.376 15.9893 47.9173 16.1599 47.32 16.1599Z" fill="#222222"/>
<path d="M75.6943 31.6159C75.7796 31.6159 75.8223 31.6799 75.8223 31.8079C75.8223 31.9359 75.7796 31.9999 75.6943 31.9999C75.1396 31.9999 74.7023 31.9893 74.3823 31.9679L72.4623 31.9359L70.6063 31.9679C70.2649 31.9893 69.8169 31.9999 69.2623 31.9999C69.1983 31.9999 69.1663 31.9359 69.1663 31.8079C69.1663 31.6799 69.1983 31.6159 69.2623 31.6159C69.9236 31.6159 70.3716 31.4666 70.6063 31.1679C70.8623 30.8479 70.9903 30.2613 70.9903 29.4079V24.7999C70.9903 23.6479 70.7876 22.7946 70.3823 22.2399C69.9983 21.6853 69.4009 21.4079 68.5903 21.4079C68.0356 21.4079 67.4916 21.5253 66.9583 21.7599C66.4249 21.9946 65.9663 22.3146 65.5823 22.7199V22.9119V29.4079C65.5823 30.2613 65.6996 30.8479 65.9343 31.1679C66.1903 31.4666 66.6489 31.6159 67.3103 31.6159C67.3956 31.6159 67.4383 31.6799 67.4383 31.8079C67.4383 31.9359 67.3956 31.9999 67.3103 31.9999C66.7556 31.9999 66.3183 31.9893 65.9983 31.9679L64.0783 31.9359L62.2223 31.9679C61.8809 31.9893 61.4329 31.9999 60.8783 31.9999C60.8143 31.9999 60.7823 31.9359 60.7823 31.8079C60.7823 31.6799 60.8143 31.6159 60.8783 31.6159C61.5396 31.6159 61.9876 31.4666 62.2223 31.1679C62.4783 30.8479 62.6063 30.2613 62.6063 29.4079V24.7999C62.6063 23.6479 62.4036 22.7946 61.9983 22.2399C61.6143 21.6853 61.0169 21.4079 60.2063 21.4079C59.6943 21.4079 59.1823 21.5146 58.6703 21.7279C58.1796 21.9199 57.7423 22.1973 57.3583 22.5599V29.4079C57.3583 30.2613 57.4756 30.8479 57.7103 31.1679C57.9663 31.4666 58.4249 31.6159 59.0863 31.6159C59.1503 31.6159 59.1823 31.6799 59.1823 31.8079C59.1823 31.9359 59.1503 31.9999 59.0863 31.9999C58.5316 31.9999 58.0943 31.9893 57.7743 31.9679L55.8543 31.9359L53.9663 31.9679C53.6463 31.9893 53.2089 31.9999 52.6543 31.9999C52.5903 31.9999 52.5583 31.9359 52.5583 31.8079C52.5583 31.6799 52.5903 31.6159 52.6543 31.6159C53.3156 31.6159 53.7636 31.4666 53.9983 31.1679C54.2329 30.8479 54.3503 30.2613 54.3503 29.4079V23.3919C54.3503 22.7306 54.2649 22.2506 54.0943 21.9519C53.9449 21.6319 53.6996 21.4719 53.3583 21.4719C52.9956 21.4719 52.4836 21.6213 51.8223 21.9199H51.7583C51.6943 21.9199 51.6409 21.8666 51.5983 21.7599C51.5769 21.6533 51.5876 21.5893 51.6303 21.5679L56.0783 19.3919C56.2063 19.3493 56.2809 19.3279 56.3023 19.3279C56.5369 19.3279 56.7609 19.5626 56.9743 20.0319C57.1876 20.4799 57.3156 21.0879 57.3583 21.8559C58.8089 20.1279 60.3663 19.2639 62.0303 19.2639C63.0329 19.2639 63.8329 19.5093 64.4303 19.9999C65.0276 20.4906 65.3903 21.1946 65.5183 22.1119C66.9903 20.2133 68.6223 19.2639 70.4143 19.2639C71.5663 19.2639 72.4409 19.5946 73.0383 20.2559C73.6569 20.9173 73.9663 21.9199 73.9663 23.2639V29.4079C73.9663 30.2613 74.0836 30.8479 74.3183 31.1679C74.5743 31.4666 75.0329 31.6159 75.6943 31.6159Z" fill="#222222"/>
<path d="M88.6973 29.8879C88.7399 29.8879 88.7826 29.9306 88.8253 30.0159C88.8893 30.1013 88.8999 30.1653 88.8573 30.2079C88.0679 30.9759 87.2679 31.5306 86.4573 31.8719C85.6466 32.2133 84.7613 32.3839 83.8013 32.3839C82.4573 32.3839 81.2946 32.1066 80.3133 31.5519C79.3319 30.9759 78.5853 30.2186 78.0733 29.2799C77.5613 28.3199 77.3053 27.2959 77.3053 26.2079C77.3053 24.9706 77.6253 23.8293 78.2653 22.7839C78.9053 21.7173 79.7799 20.8853 80.8893 20.2879C81.9986 19.6693 83.2359 19.3599 84.6013 19.3599C85.9239 19.3599 86.9373 19.6479 87.6413 20.2239C88.3453 20.7786 88.6973 21.5466 88.6973 22.5279C88.6973 23.1466 88.5799 23.4559 88.3453 23.4559H86.3933L80.6333 23.5199C80.5693 23.9253 80.5373 24.3733 80.5373 24.8639C80.5373 26.6986 80.9639 28.1493 81.8173 29.2159C82.6919 30.2826 83.8866 30.8159 85.4013 30.8159C85.9346 30.8159 86.4893 30.7413 87.0653 30.5919C87.6413 30.4426 88.1639 30.2186 88.6333 29.9199L88.6973 29.8879ZM83.4173 19.9999C82.7773 19.9999 82.2226 20.2559 81.7533 20.7679C81.2839 21.2799 80.9426 21.9839 80.7293 22.8799L85.2733 22.7839C85.2093 20.9279 84.5906 19.9999 83.4173 19.9999Z" fill="#222222"/>
<path d="M99.8643 8.76794C101.059 8.76794 101.987 8.93861 102.648 9.27994C103.31 9.59994 103.64 10.0586 103.64 10.6559C103.64 11.1466 103.47 11.5306 103.128 11.8079C102.808 12.0853 102.435 12.2239 102.008 12.2239C101.496 12.2239 101.123 12.1066 100.888 11.8719C100.654 11.6373 100.44 11.2959 100.248 10.8479C100.056 10.3999 99.8536 10.0693 99.6403 9.85594C99.4269 9.62128 99.0856 9.50394 98.6163 9.50394C97.6349 9.50394 96.8563 10.1866 96.2803 11.5519C95.7256 12.9173 95.4483 15.0506 95.4483 17.9519V19.9039C96.1096 19.8826 97.2829 19.7866 98.9683 19.6159C99.0323 19.6159 99.0856 19.7013 99.1283 19.8719C99.1709 20.0213 99.1923 20.1919 99.1923 20.3839C99.1923 20.5973 99.1496 20.8106 99.0643 21.0239C99.0003 21.2159 98.9363 21.3013 98.8723 21.2799C97.8483 21.0239 96.7069 20.8639 95.4483 20.7999V29.4079C95.4483 30.0693 95.5123 30.5493 95.6403 30.8479C95.7683 31.1466 96.0243 31.3493 96.4083 31.4559C96.8136 31.5626 97.4429 31.6159 98.2963 31.6159C98.3816 31.6159 98.4243 31.6799 98.4243 31.8079C98.4243 31.9359 98.3816 31.9999 98.2963 31.9999L96.0883 31.9679C95.5976 31.9466 94.8723 31.9359 93.9123 31.9359L91.9603 31.9679C91.6189 31.9893 91.1389 31.9999 90.5203 31.9999C90.4349 31.9999 90.3923 31.9359 90.3923 31.8079C90.3923 31.6799 90.4349 31.6159 90.5203 31.6159C91.0749 31.6159 91.4803 31.5626 91.7363 31.4559C92.0136 31.3493 92.1949 31.1466 92.2803 30.8479C92.3869 30.5279 92.4403 30.0479 92.4403 29.4079V22.2079C92.4403 21.5466 92.3016 21.1199 92.0243 20.9279C91.7469 20.7146 91.2029 20.6079 90.3923 20.6079C90.3283 20.6079 90.2963 20.5119 90.2963 20.3199C90.2963 20.1279 90.3283 20.0319 90.3923 20.0319C91.1389 20.0319 91.6509 19.9359 91.9283 19.7439C92.2056 19.5306 92.3549 19.1573 92.3763 18.6239C92.4829 15.1466 93.1443 12.6399 94.3603 11.1039C95.5763 9.54661 97.4109 8.76794 99.8643 8.76794Z" fill="#222222"/>
<path d="M108.974 19.3279C109.465 19.3279 109.934 19.5093 110.382 19.8719C110.852 20.2133 111.086 20.6293 111.086 21.1199C111.086 21.5679 110.948 21.9413 110.67 22.2399C110.393 22.5173 110.03 22.6559 109.582 22.6559C109.262 22.6559 108.996 22.5919 108.782 22.4639C108.59 22.3359 108.388 22.1439 108.174 21.8879C107.982 21.6746 107.812 21.5253 107.662 21.4399C107.534 21.3333 107.374 21.2799 107.182 21.2799C106.969 21.2799 106.734 21.3653 106.478 21.5359C106.244 21.6853 105.87 22.0159 105.358 22.5279V29.4079C105.358 30.2613 105.561 30.8479 105.966 31.1679C106.372 31.4666 107.118 31.6159 108.206 31.6159C108.292 31.6159 108.334 31.6799 108.334 31.8079C108.334 31.9359 108.292 31.9999 108.206 31.9999C107.46 31.9999 106.873 31.9893 106.446 31.9679L103.854 31.9359L101.966 31.9679C101.646 31.9893 101.209 31.9999 100.654 31.9999C100.59 31.9999 100.558 31.9359 100.558 31.8079C100.558 31.6799 100.59 31.6159 100.654 31.6159C101.316 31.6159 101.764 31.4666 101.998 31.1679C102.233 30.8479 102.35 30.2613 102.35 29.4079V23.3919C102.35 22.7306 102.265 22.2506 102.094 21.9519C101.945 21.6319 101.7 21.4719 101.358 21.4719C100.996 21.4719 100.484 21.6213 99.8223 21.9199H99.7583C99.6943 21.9199 99.6409 21.8666 99.5983 21.7599C99.5769 21.6533 99.5876 21.5893 99.6303 21.5679L104.078 19.3919C104.206 19.3493 104.281 19.3279 104.302 19.3279C104.537 19.3279 104.75 19.5519 104.942 19.9999C105.156 20.4266 105.284 21.0133 105.326 21.7599C106.201 20.8639 106.916 20.2346 107.47 19.8719C108.046 19.5093 108.548 19.3279 108.974 19.3279Z" fill="#222222"/>
<path d="M124.564 30.2719C124.65 30.2719 124.703 30.3253 124.724 30.4319C124.767 30.5173 124.746 30.5813 124.66 30.6239L121.364 32.1919C121.279 32.2346 121.172 32.2559 121.044 32.2559C120.724 32.2559 120.404 32.0959 120.084 31.7759C119.786 31.4559 119.572 31.0186 119.444 30.4639L117.972 31.2639C117.418 31.5413 116.842 31.7759 116.244 31.9679C115.647 32.1386 115.114 32.2239 114.644 32.2239C113.962 32.2239 113.418 32.0533 113.012 31.7119C112.628 31.3493 112.436 30.8373 112.436 30.1759C112.436 29.6853 112.554 29.2906 112.788 28.9919C113.044 28.6933 113.396 28.4479 113.844 28.2559C114.314 28.0426 115.05 27.7653 116.052 27.4239L119.316 26.3679V23.8399C119.316 22.5599 119.188 21.6213 118.932 21.0239C118.676 20.4053 118.26 20.0959 117.684 20.0959C117.172 20.0959 116.767 20.2879 116.468 20.6719C116.17 21.0559 115.988 21.6853 115.924 22.5599C115.796 23.7546 115.167 24.3519 114.036 24.3519C113.034 24.3519 112.532 23.9146 112.532 23.0399C112.532 22.4639 112.895 21.8879 113.62 21.3119C114.346 20.7359 115.22 20.2666 116.244 19.9039C117.268 19.5413 118.164 19.3599 118.932 19.3599C119.935 19.3599 120.746 19.6586 121.364 20.2559C122.004 20.8533 122.324 21.7279 122.324 22.8799V28.5439C122.324 29.1626 122.431 29.6426 122.644 29.9839C122.879 30.3253 123.199 30.4959 123.604 30.4959C123.903 30.4959 124.212 30.4213 124.532 30.2719H124.564ZM119.348 29.9519C119.327 29.8026 119.316 29.5786 119.316 29.2799V26.9119L117.556 27.5519C116.98 27.7653 116.564 27.9999 116.308 28.2559C116.074 28.5119 115.956 28.8213 115.956 29.1839C115.956 29.6319 116.084 29.9839 116.34 30.2399C116.596 30.4959 116.916 30.6239 117.3 30.6239C117.77 30.6239 118.314 30.4746 118.932 30.1759L119.348 29.9519Z" fill="#222222"/>
<path d="M148.913 31.6159C148.998 31.6159 149.041 31.6799 149.041 31.8079C149.041 31.9359 148.998 31.9999 148.913 31.9999C148.358 31.9999 147.921 31.9893 147.601 31.9679L145.681 31.9359L143.825 31.9679C143.484 31.9893 143.036 31.9999 142.481 31.9999C142.417 31.9999 142.385 31.9359 142.385 31.8079C142.385 31.6799 142.417 31.6159 142.481 31.6159C143.142 31.6159 143.59 31.4666 143.825 31.1679C144.081 30.8479 144.209 30.2613 144.209 29.4079V24.7999C144.209 23.6479 144.006 22.7946 143.601 22.2399C143.217 21.6853 142.62 21.4079 141.809 21.4079C141.254 21.4079 140.71 21.5253 140.177 21.7599C139.644 21.9946 139.185 22.3146 138.801 22.7199V22.9119V29.4079C138.801 30.2613 138.918 30.8479 139.153 31.1679C139.409 31.4666 139.868 31.6159 140.529 31.6159C140.614 31.6159 140.657 31.6799 140.657 31.8079C140.657 31.9359 140.614 31.9999 140.529 31.9999C139.974 31.9999 139.537 31.9893 139.217 31.9679L137.297 31.9359L135.441 31.9679C135.1 31.9893 134.652 31.9999 134.097 31.9999C134.033 31.9999 134.001 31.9359 134.001 31.8079C134.001 31.6799 134.033 31.6159 134.097 31.6159C134.758 31.6159 135.206 31.4666 135.441 31.1679C135.697 30.8479 135.825 30.2613 135.825 29.4079V24.7999C135.825 23.6479 135.622 22.7946 135.217 22.2399C134.833 21.6853 134.236 21.4079 133.425 21.4079C132.913 21.4079 132.401 21.5146 131.889 21.7279C131.398 21.9199 130.961 22.1973 130.577 22.5599V29.4079C130.577 30.2613 130.694 30.8479 130.929 31.1679C131.185 31.4666 131.644 31.6159 132.305 31.6159C132.369 31.6159 132.401 31.6799 132.401 31.8079C132.401 31.9359 132.369 31.9999 132.305 31.9999C131.75 31.9999 131.313 31.9893 130.993 31.9679L129.073 31.9359L127.185 31.9679C126.865 31.9893 126.428 31.9999 125.873 31.9999C125.809 31.9999 125.777 31.9359 125.777 31.8079C125.777 31.6799 125.809 31.6159 125.873 31.6159C126.534 31.6159 126.982 31.4666 127.217 31.1679C127.452 30.8479 127.569 30.2613 127.569 29.4079V23.3919C127.569 22.7306 127.484 22.2506 127.313 21.9519C127.164 21.6319 126.918 21.4719 126.577 21.4719C126.214 21.4719 125.702 21.6213 125.041 21.9199H124.977C124.913 21.9199 124.86 21.8666 124.817 21.7599C124.796 21.6533 124.806 21.5893 124.849 21.5679L129.297 19.3919C129.425 19.3493 129.5 19.3279 129.521 19.3279C129.756 19.3279 129.98 19.5626 130.193 20.0319C130.406 20.4799 130.534 21.0879 130.577 21.8559C132.028 20.1279 133.585 19.2639 135.249 19.2639C136.252 19.2639 137.052 19.5093 137.649 19.9999C138.246 20.4906 138.609 21.1946 138.737 22.1119C140.209 20.2133 141.841 19.2639 143.633 19.2639C144.785 19.2639 145.66 19.5946 146.257 20.2559C146.876 20.9173 147.185 21.9199 147.185 23.2639V29.4079C147.185 30.2613 147.302 30.8479 147.537 31.1679C147.793 31.4666 148.252 31.6159 148.913 31.6159Z" fill="#222222"/>
<path d="M161.916 29.8879C161.959 29.8879 162.001 29.9306 162.044 30.0159C162.108 30.1013 162.119 30.1653 162.076 30.2079C161.287 30.9759 160.487 31.5306 159.676 31.8719C158.865 32.2133 157.98 32.3839 157.02 32.3839C155.676 32.3839 154.513 32.1066 153.532 31.5519C152.551 30.9759 151.804 30.2186 151.292 29.2799C150.78 28.3199 150.524 27.2959 150.524 26.2079C150.524 24.9706 150.844 23.8293 151.484 22.7839C152.124 21.7173 152.999 20.8853 154.108 20.2879C155.217 19.6693 156.455 19.3599 157.82 19.3599C159.143 19.3599 160.156 19.6479 160.86 20.2239C161.564 20.7786 161.916 21.5466 161.916 22.5279C161.916 23.1466 161.799 23.4559 161.564 23.4559H159.612L153.852 23.5199C153.788 23.9253 153.756 24.3733 153.756 24.8639C153.756 26.6986 154.183 28.1493 155.036 29.2159C155.911 30.2826 157.105 30.8159 158.62 30.8159C159.153 30.8159 159.708 30.7413 160.284 30.5919C160.86 30.4426 161.383 30.2186 161.852 29.9199L161.916 29.8879ZM156.636 19.9999C155.996 19.9999 155.441 20.2559 154.972 20.7679C154.503 21.2799 154.161 21.9839 153.948 22.8799L158.492 22.7839C158.428 20.9279 157.809 19.9999 156.636 19.9999Z" fill="#222222"/>
<line x1="127" y1="13.25" x2="147" y2="13.25" stroke="black" stroke-width="1.5"/>
</svg>
